<?xml version="1.0" standalone="no"?>
<!DOCTYPE svg PUBLIC "-//W3C//DTD SVG 20010904//EN"
 "http://www.w3.org/TR/2001/REC-SVG-20010904/DTD/svg10.dtd">
<svg version="1.0" xmlns="http://www.w3.org/2000/svg"
 width="260.000000pt" height="260.000000pt" viewBox="0 0 260.000000 260.000000"
 preserveAspectRatio="xMidYMid meet">
<metadata>
Created by potrace 1.11, written by Peter Selinger 2001-2013
</metadata>
<g transform="translate(0.000000,260.000000) scale(0.100000,-0.100000)"
fill="#000000" stroke="none">
<path d="M1263 2540 c-40 -18 -49 -29 -43 -55 1 -5 4 -19 6 -31 2 -11 15 -50
28 -87 l24 -67 -21 -1 c-105 -7 -160 34 -224 169 -14 29 -29 55 -34 57 -11 7
-22 -74 -16 -118 6 -47 32 -88 73 -117 38 -25 35 -36 -14 -46 -29 -6 -37 -2
-82 45 -27 28 -55 51 -61 51 -7 0 -44 23 -82 51 -75 55 -90 53 -77 -7 11 -46
23 -59 97 -106 82 -52 89 -64 54 -107 l-28 -34 -59 40 c-98 66 -213 133 -228
133 -11 0 -26 -20 -26 -35 0 -2 50 -45 110 -96 61 -51 110 -94 110 -96 0 -21
-24 -42 -43 -38 -209 45 -319 66 -323 62 -8 -8 14 -52 38 -75 18 -16 40 -23
85 -26 64 -4 102 -19 104 -39 0 -7 2 -21 4 -32 7 -34 -10 -42 -72 -34 -32 4
-83 10 -113 13 -30 3 -80 9 -110 12 -30 3 -58 8 -62 11 -22 13 2 -49 29 -75
15 -16 61 -30 123 -38 75 -10 161 -55 127 -66 -6 -2 -92 -4 -190 -3 -97 0
-177 -1 -177 -3 0 -1 7 -14 16 -28 28 -41 70 -57 169 -60 106 -4 115 -7 115
-33 0 -19 -14 -33 -35 -37 -24 -5 -65 -14 -123 -28 -9 -3 -54 -13 -100 -23
-93 -20 -100 -32 -43 -70 40 -27 75 -29 116 -7 55 30 85 34 116 18 16 -8 29
-18 29 -22 0 -4 -66 -41 -147 -83 -81 -42 -149 -81 -150 -86 -5 -14 52 -43 84
-43 15 0 60 18 98 41 74 43 124 59 126 40 1 -6 1 -20 1 -31 0 -11 0 -24 -1
-28 -1 -12 -130 -99 -164 -112 -40 -14 -92 -13 -133 5 l-36 15 35 -48 c20 -25
51 -55 71 -65 43 -23 69 -16 160 40 l59 36 19 -23 c10 -12 18 -26 18 -30 0 -5
-62 -53 -137 -106 -76 -54 -140 -99 -142 -101 -12 -9 15 -16 66 -17 63 -1 125
27 172 78 14 14 30 26 37 26 14 0 34 -51 29 -77 -2 -10 -4 -21 -4 -24 -1 -3
-23 -31 -50 -62 -27 -31 -52 -70 -56 -87 -4 -16 -10 -28 -15 -25 -4 3 -25 7
-46 10 -53 8 -96 16 -116 21 -25 7 -22 -11 5 -38 56 -57 84 -77 116 -83 43 -7
69 9 141 87 47 52 57 58 68 45 10 -12 -2 -33 -73 -123 -46 -60 -85 -112 -85
-116 0 -14 55 -8 87 10 18 9 52 36 77 60 24 23 47 42 51 42 3 0 15 -21 26 -46
22 -50 20 -94 -7 -146 -22 -42 -74 -98 -117 -125 l-39 -25 22 -23 c28 -30 54
-36 78 -19 11 7 48 59 83 114 35 55 67 100 72 100 4 0 16 -15 27 -33 30 -48
25 -98 -15 -176 -45 -87 -46 -106 -3 -97 44 9 73 39 87 89 7 23 12 45 11 50
-2 15 34 66 54 76 26 13 86 22 87 13 1 -4 2 -71 3 -149 1 -78 4 -144 7 -147 8
-8 71 27 83 46 8 13 5 32 -9 75 -11 32 -20 67 -20 77 0 16 104 130 112 123 3
-4 45 -239 50 -289 6 -53 22 -64 61 -45 38 18 39 54 3 129 -33 67 -39 122 -20
178 l12 32 74 -113 c40 -63 83 -131 95 -151 26 -46 38 -47 61 -9 28 48 22 68
-48 139 -83 85 -90 106 -44 144 18 15 38 28 44 28 5 0 46 -53 90 -116 44 -64
83 -118 87 -120 4 -3 17 0 29 7 19 10 21 17 15 70 -3 33 -8 64 -11 69 -3 5 -1
11 3 14 5 3 41 -19 80 -49 38 -30 72 -55 74 -55 2 0 5 19 7 42 1 24 4 52 6 63
2 11 4 25 4 31 1 6 12 16 24 21 23 11 24 9 36 -53 11 -51 17 -64 31 -64 15 0
21 11 26 47 5 27 9 50 9 53 1 3 5 29 9 58 4 28 9 52 9 52 1 0 35 -9 75 -19 70
-19 73 -19 82 -1 29 53 -2 87 -91 101 -72 11 -89 26 -89 78 l0 34 23 -21 c30
-29 62 -39 142 -47 77 -7 129 -25 162 -57 l23 -22 -14 48 c-28 93 -40 101
-169 110 -89 7 -96 20 -59 109 9 20 20 37 24 37 5 0 63 -22 128 -49 65 -27
121 -47 124 -43 3 3 6 24 6 47 0 56 -24 77 -102 86 -68 8 -85 20 -94 67 l-7
34 54 -7 c30 -3 74 -8 99 -11 25 -3 62 -7 82 -10 l36 -5 -25 55 c-15 30 -31
57 -38 60 -6 2 -35 -1 -64 -7 -46 -9 -55 -8 -78 9 -14 11 -29 29 -33 40 -7 18
-4 20 49 19 50 0 62 4 118 44 34 24 78 47 97 50 l36 6 -47 49 -47 48 -26 -29
c-14 -16 -40 -46 -58 -67 -31 -35 -34 -37 -66 -26 -61 20 -93 73 -81 136 5 31
9 34 28 27 12 -4 41 -8 64 -8 39 1 49 6 105 62 35 33 74 66 87 73 l25 13 -26
13 c-14 7 -40 16 -58 19 -28 5 -37 0 -77 -40 -52 -51 -69 -54 -145 -25 -57 21
-68 33 -68 71 0 25 2 25 65 24 35 -1 68 1 74 4 5 3 18 35 28 71 l19 65 57 -1
c31 0 57 1 57 4 0 22 -37 72 -58 79 -24 8 -36 9 -86 4 -14 -1 -24 -25 -46
-110 l-11 -44 -56 7 c-31 4 -68 12 -82 19 -27 13 -74 74 -66 87 3 4 21 11 40
14 42 8 96 59 126 119 12 23 30 54 40 69 27 38 24 48 -16 48 -32 0 -46 -11
-134 -100 -54 -55 -102 -100 -107 -100 -15 0 -79 113 -66 118 27 9 78 50 98
79 21 32 47 120 59 202 l6 44 -43 -26 c-38 -22 -44 -30 -49 -70 -10 -62 -22
-81 -87 -132 l-57 -45 -35 36 c-31 31 -33 37 -19 47 43 33 52 63 44 161 -5 77
-4 99 9 125 14 27 14 31 2 31 -8 0 -27 -11 -43 -24 -26 -22 -28 -29 -28 -102
l0 -79 -35 -17 c-19 -10 -47 -18 -62 -18 -32 0 -44 30 -52 130 -3 36 -9 97
-12 135 -4 39 -7 76 -7 83 0 19 -12 15 -46 -17 -35 -33 -39 -61 -20 -168 6
-35 9 -66 7 -68 -9 -9 -108 28 -108 40 0 7 -15 43 -34 79 -50 95 -59 128 -47
170 5 20 9 36 8 36 -1 0 -21 -9 -44 -20z m613 -1961 c32 -14 44 -25 42 -37 -3
-14 -15 -17 -61 -18 -40 0 -57 4 -57 12 0 15 21 64 27 64 2 0 24 -9 49 -21z
m-138 -160 c-15 -10 -61 2 -92 24 l-29 21 38 33 39 34 27 -53 c16 -31 23 -56
17 -59z"/>
</g>
</svg>
